<svg width="24" height="25" viewBox="0 0 24 25" fill="none" xmlns="http://www.w3.org/2000/svg">
<path fill-rule="evenodd" clip-rule="evenodd" d="M5 12.5002C5.00024 9.16068 7.35944 6.28639 10.6348 5.6351C13.9102 4.98382 17.1895 6.73693 18.4673 9.82231C19.7451 12.9077 18.6655 16.466 15.8887 18.3212C13.1119 20.1764 9.41127 19.8117 7.05 17.4502C5.73728 16.1373 4.99987 14.3568 5 12.5002Z" stroke="#F39F9D" stroke-width="1.5" stroke-linecap="round" stroke-linejoin="round"/>
<path d="M9.375 11.75C8.96079 11.75 8.625 12.0858 8.625 12.5C8.625 12.9142 8.96079 13.25 9.375 13.25V11.75ZM12 13.25C12.4142 13.25 12.75 12.9142 12.75 12.5C12.75 12.0858 12.4142 11.75 12 11.75V13.25ZM12 11.75C11.5858 11.75 11.25 12.0858 11.25 12.5C11.25 12.9142 11.5858 13.25 12 13.25V11.75ZM14.625 13.25C15.0392 13.25 15.375 12.9142 15.375 12.5C15.375 12.0858 15.0392 11.75 14.625 11.75V13.25ZM12.75 12.5C12.75 12.0858 12.4142 11.75 12 11.75C11.5858 11.75 11.25 12.0858 11.25 12.5H12.75ZM11.25 15.125C11.25 15.5392 11.5858 15.875 12 15.875C12.4142 15.875 12.75 15.5392 12.75 15.125H11.25ZM11.25 12.5C11.25 12.9142 11.5858 13.25 12 13.25C12.4142 13.25 12.75 12.9142 12.75 12.5H11.25ZM12.75 9.875C12.75 9.46079 12.4142 9.125 12 9.125C11.5858 9.125 11.25 9.46079 11.25 9.875H12.75ZM9.375 13.25H12V11.75H9.375V13.25ZM12 13.25H14.625V11.75H12V13.25ZM11.25 12.5V15.125H12.75V12.5H11.25ZM12.75 12.5V9.875H11.25V12.5H12.75Z" fill="#F39F9D"/>
</svg>
