<svg width="30" height="30" viewBox="0 0 30 30" fill="none" xmlns="http://www.w3.org/2000/svg">
<path d="M13.3297 9.2931C13.6297 9.00744 13.6413 8.53271 13.3556 8.23276C13.0699 7.93281 12.5952 7.92123 12.2953 8.2069L13.3297 9.2931ZM5.73276 14.4569C5.43281 14.7426 5.42123 15.2173 5.7069 15.5172C5.99256 15.8172 6.46729 15.8288 6.76724 15.5431L5.73276 14.4569ZM6.76724 14.4569C6.46729 14.1712 5.99256 14.1828 5.7069 14.4828C5.42123 14.7827 5.43281 15.2574 5.73276 15.5431L6.76724 14.4569ZM12.2953 21.7931C12.5952 22.0788 13.0699 22.0672 13.3556 21.7672C13.6413 21.4673 13.6297 20.9926 13.3297 20.7069L12.2953 21.7931ZM6.25 14.25C5.83579 14.25 5.5 14.5858 5.5 15C5.5 15.4142 5.83579 15.75 6.25 15.75V14.25ZM23.75 15.75C24.1642 15.75 24.5 15.4142 24.5 15C24.5 14.5858 24.1642 14.25 23.75 14.25V15.75ZM12.2953 8.2069L5.73276 14.4569L6.76724 15.5431L13.3297 9.2931L12.2953 8.2069ZM5.73276 15.5431L12.2953 21.7931L13.3297 20.7069L6.76724 14.4569L5.73276 15.5431ZM6.25 15.75H23.75V14.25H6.25V15.75Z" fill="black"/>
</svg>
